<?xml version="1.0" encoding="iso-8859-1"?>
<!-- Uploaded to: SVG Repo, www.svgrepo.com, Generator: SVG Repo Mixer Tools -->
<svg fill="#635d5c" height="800px" width="800px" version="1.1" id="Layer_1" xmlns="http://www.w3.org/2000/svg" xmlns:xlink="http://www.w3.org/1999/xlink" 
	 viewBox="0 0 511.999 511.999" xml:space="preserve">
  <rect width="100%" height="100%" rx="96" fill="#222222"/>

<g transform="scale(0.8, 0.8) translate(64, 64)">
	<g>
		<g>
			<path d="M256.298,101.846
			c-92.85,0-206.983,143.686-206.983,260.579
			c0,44.352,15.783,79.881,46.928,105.612
				c35.323,29.174,89.169,43.962,160.054,43.962
				c70.625,0,124.319-14.906,159.567-44.319c31.069-25.916,46.82-61.673,46.82-106.262
				C462.685,244.98,348.887,101.846,256.298,101.846
				"/>
		</g>
		<g transform="translate(164, 244) scale(3, 3)">
			<path d="M52.381 48.35a30 30 0 0 0-7.3 4.128 45 45 0 0 0-5.545 4.919 43 43 0 0 1 2.095-4.383 22.6 22.6 0 0 1 6.167-7.36 15.6 15.6 0 0 1 4.55-2.29 18.3 18.3 0 0 1 9.409-.162 89 89 0 0 0-1.976-5.39 80 80 0 0 0-4.234-8.874 39.3 39.3 0 0 0 4.278-8.572 28.6 28.6 0 0 0 1.681-10.857 42 42 0 0 0-.752-6.67 7 7 0 0 0-.273-1.148 1.25 1.25 0 0 0-1.468-.763 13 13 0 0 0-1.545.595 39.4 39.4 0 0 0-10.449 7.08 55.4 55.4 0 0 0-5.945 6.406c-.086.166-.248.004-.354-.04a27 27 0 0 1-2.757-1.803 9.5 9.5 0 0 1-2.588-2.781c-.318-.465-.508-1.002-.826-1.467a16.1 16.1 0 0 1-6.395 3.594 7.8 7.8 0 0 0 1.233-3.342 16.4 16.4 0 0 1-1.934 2.684 14.6 14.6 0 0 1-2.587 2.046c-.649.418-1.293.844-1.967 1.22a56 56 0 0 0-5.91-6.475A37.6 37.6 0 0 0 5.712 1.198 3.3 3.3 0 0 0 4.577.885a1.24 1.24 0 0 0-1.162.986 40 40 0 0 0-.836 5.654 33 33 0 0 0 .078 6.775 34.5 34.5 0 0 0 5.817 14.654 66 66 0 0 0-1.887 3.576 84 84 0 0 0-4.344 10.688 17 17 0 0 1 2.755-.463 16.4 16.4 0 0 1 6.899.74 17.5 17.5 0 0 1 7.977 5.945A37 37 0 0 1 24.4 57.4c-.287-.257-.511-.57-.787-.838a42 42 0 0 0-9.172-6.88 21 21 0 0 0-10.552-2.675c.754.314 1.552.518 2.311.822a64 64 0 0 1 10.033 4.885 50 50 0 0 1 8.194 6.091 24.3 24.3 0 0 0 3.327 2.988 7.37 7.37 0 0 0 3.998 1.322 7.6 7.6 0 0 0 4.465-1.313 27.6 27.6 0 0 0 3.331-2.952 41 41 0 0 1 3.541-2.982 58.6 58.6 0 0 1 14.644-8.056c.763-.312 1.57-.509 2.329-.83a20.8 20.8 0 0 0-7.68 1.368m.185-29.385a11.8 11.8 0 0 1 4.007-1.868 14.2 14.2 0 0 0-3.725-1.267 25.3 25.3 0 0 0 4.85-9.047c.207-.703.356-1.421.495-2.14a31 31 0 0 1 .713 5.656 23 23 0 0 1-.657 5.85 31 31 0 0 1-2.201 6.292q-.393.794-.787 1.585c-2.12-.538-4.206-1.208-6.311-1.802a25.7 25.7 0 0 1 3.616-3.259m-14.353 22.98c.21-1.164.392-2.335.651-3.49a4.4 4.4 0 0 1 2.268-2.908 6.5 6.5 0 0 1 1.942-.595c1.932-.345 3.86-.737 5.808-.983-2.331 2.324-4.678 4.636-7.124 6.84-1.31 1.193-2.657 2.346-3.966 3.54.11-.806.282-1.602.42-2.403M8.684 24.051a30.5 30.5 0 0 1-2.86-7.287 23.2 23.2 0 0 1-.76-7.392 26 26 0 0 1 .509-3.91 5 5 0 0 1 .203-.886 20.5 20.5 0 0 0 2.735 7.541 26.3 26.3 0 0 0 2.592 3.697 16.3 16.3 0 0 0-3.822 1.294 14 14 0 0 1 6.147 3.618c.522.486 1.002 1.014 1.537 1.485-2.077.67-4.178 1.262-6.28 1.84m13.742 17.007c-2.524-2.311-5.023-4.654-7.418-7.1 2.18.384 4.368.728 6.542 1.146a4.51 4.51 0 0 1 3.211 2.482 10.5 10.5 0 0 1 .64 2.479c.248 1.427.554 2.845.76 4.28-1.227-1.115-2.513-2.166-3.735-3.287M36.72 59.325a6.22 6.22 0 0 1-3.321 2.164 5.8 5.8 0 0 1-4.192-.515 7.08 7.08 0 0 1-3.564-5.245 12.13 12.13 0 0 1 1.219-6.142c1.618-3.802 3.41-7.527 5.093-11.3 1.654 3.658 3.437 7.257 4.988 10.96a16 16 0 0 1 1.36 4.92 7.25 7.25 0 0 1-1.583 5.158" fill="#ffffff" opacity="1" data-original="#000000" class=""></path>
			
		</g>
	</g>
	<g>
		<g>
			<path d="M347.037,20.547c-7.686-3.941-17.126-1.354-21.705,5.976c-6.95,11.14-16.639,13.932-23.545,14.311
				c-12.016,0.855-24.087-5.25-32.454-15.816C256.752,9.115,236.844,0,214.728,0c-22.116,0-42.024,9.115-54.604,25.017
				c-3.746,4.72-4.634,11.085-2.338,16.66c1.859,4.508,10.991,25.543,26.151,46.511c23.911-12.465,48.487-19.6,72.36-19.6
				c23.868,0,48.444,7.139,72.347,19.615c15.169-20.974,24.306-42.019,26.166-46.528C358.1,33.678,354.722,24.498,347.037,20.547z"/>
		</g>
	</g>
</g>
</svg>